<svg xmlns="http://www.w3.org/2000/svg" enable-background="new 0 0 64 64" viewBox="0 0 64 64"><path d="M1.4,37.1v2.6c0,0.6,0.5,1.1,1.1,1.1h59c0.6,0,1.1-0.5,1.1-1.1v-2.6c0-0.6-0.5-1.1-1.1-1.1h-59C1.9,36.1,1.4,36.5,1.4,37.1
		z M43.5,12.6c-0.1-0.3-0.2-0.5-0.2-0.8c0-0.1,0-0.1-0.1-0.2c-0.1-0.3-0.1-0.6-0.1-0.9c0-0.3,0-0.6,0.1-0.9c0-0.1,0-0.1,0-0.2
		c0.1-0.3,0.1-0.5,0.2-0.8V8.7c0.1-0.2,0.2-0.4,0.3-0.6c-0.4-0.2-0.8-0.2-1.2-0.2c-1.6,0-2.8,1.3-2.8,2.8c0,1.6,1.3,2.8,2.8,2.8
		c0.4,0,0.8-0.1,1.2-0.2C43.8,13.1,43.7,12.8,43.5,12.6L43.5,12.6z M48.1,7.8c-0.7,0-1.4,0.3-2,0.8C46,8.7,45.9,8.9,45.8,9
		c-0.3,0.5-0.5,1-0.5,1.6c0,0.8,0.3,1.5,0.9,2.1c0.5,0.5,1.2,0.8,2,0.8c1.6,0,2.8-1.3,2.8-2.8C51,9.1,49.7,7.8,48.1,7.8z M48.1,7.8
		c-0.7,0-1.4,0.3-2,0.8C46,8.7,45.9,8.9,45.8,9c-0.3,0.5-0.5,1-0.5,1.6c0,0.8,0.3,1.5,0.9,2.1c0.5,0.5,1.2,0.8,2,0.8
		c1.6,0,2.8-1.3,2.8-2.8C51,9.1,49.7,7.8,48.1,7.8z M43.3,9.5c0.1-0.3,0.1-0.5,0.2-0.8V8.6c0.1-0.2,0.2-0.4,0.3-0.6
		c-0.4-0.2-0.8-0.2-1.2-0.2c-1.6,0-2.8,1.3-2.8,2.8c0,1.6,1.3,2.8,2.8,2.8c0.4,0,0.8-0.1,1.2-0.2c-0.1-0.2-0.2-0.4-0.3-0.6v-0.1
		c-0.1-0.3-0.2-0.5-0.2-0.8c0-0.1,0-0.1-0.1-0.2c-0.1-0.3-0.1-0.6-0.1-0.9c0-0.3,0-0.6,0.1-0.9C43.3,9.7,43.3,9.6,43.3,9.5z
		 M58.2,5.2C57.6,2.2,55,0,51.9,0c-0.4,0-0.8,0-1.2,0.1L7.4,8.5c-1.7,0.3-3.2,1.3-4.1,2.7c-1,1.4-1.3,3.1-1,4.9L4,24.5
		c1.2-0.6,2.5-0.9,3.9-0.9h47.7c0.3,0,0.6,0,1,0c0.1,0,0.2,0,0.3,0.1c0.2,0,0.4,0.1,0.6,0.1c0.1,0,0.2,0.1,0.4,0.1s0.4,0.1,0.5,0.1
		s0.3,0.1,0.4,0.1c0.2,0.1,0.3,0.1,0.5,0.2c0.1,0.1,0.2,0.1,0.4,0.2c0.1,0.1,0.3,0.1,0.4,0.2c0.1,0.1,0.2,0.1,0.4,0.2
		c0.1,0.1,0.3,0.2,0.4,0.3c0.1,0.1,0.2,0.1,0.3,0.2s0.3,0.2,0.4,0.3c0.1,0.1,0.2,0.2,0.3,0.3c0.1,0.1,0.2,0.2,0.4,0.3
		c0.1,0.1,0.1,0.1,0.2,0.1L58.2,5.2z M48.1,15.6c-1,0-1.9-0.3-2.7-0.8c-0.8,0.5-1.7,0.8-2.7,0.8c-2.7,0-5-2.2-5-5s2.2-5,5-5
		c1,0,1.9,0.3,2.7,0.8c0.8-0.5,1.7-0.8,2.7-0.8c2.8,0,5,2.2,5,5S50.9,15.6,48.1,15.6z M48.1,7.8c-0.7,0-1.4,0.3-2,0.8
		C46,8.7,45.9,8.9,45.8,9c-0.3,0.5-0.5,1-0.5,1.6c0,0.8,0.3,1.5,0.9,2.1c0.5,0.5,1.2,0.8,2,0.8c1.6,0,2.8-1.3,2.8-2.8
		C51,9.1,49.7,7.8,48.1,7.8z M43.3,9.5c0.1-0.3,0.1-0.5,0.2-0.8V8.6c0.1-0.2,0.2-0.4,0.3-0.6c-0.4-0.2-0.8-0.2-1.2-0.2
		c-1.6,0-2.8,1.3-2.8,2.8c0,1.6,1.3,2.8,2.8,2.8c0.4,0,0.8-0.1,1.2-0.2c-0.1-0.2-0.2-0.4-0.3-0.6v-0.1c-0.1-0.3-0.2-0.5-0.2-0.8
		c0-0.1,0-0.1-0.1-0.2c-0.1-0.3-0.1-0.6-0.1-0.9c0-0.3,0-0.6,0.1-0.9C43.3,9.7,43.3,9.6,43.3,9.5z M55.6,25.7H8.4
		c-1.6,0-3.1,0.5-4.4,1.4c-1.7,1.2-2.6,3.1-2.6,5.1v0.7c0,0.6,0.5,1.1,1.1,1.1h59c0.6,0,1.1-0.5,1.1-1.1v-0.7
		C62.6,28.6,59.4,25.7,55.6,25.7z M2.5,43c-0.6,0-1.1,0.5-1.1,1.1v13.5c0,3.6,3.1,6.5,7,6.5h47.1c3.9,0,7-2.9,7-6.5V44
		c0-0.6-0.5-1.1-1.1-1.1L2.5,43L2.5,43z M11,58.8v1.8H9.9v-1.7c-1,0-2-0.3-2.6-0.8L7.7,57c0.6,0.4,1.5,0.7,2.5,0.7
		c1.2,0,2.1-0.7,2.1-1.7c0-0.9-0.7-1.5-2-2.1c-1.8-0.7-2.8-1.5-2.8-3c0-1.4,1-2.5,2.6-2.8v-1.7h1.1v1.7c1,0,1.7,0.3,2.3,0.6
		l-0.4,1.1c-0.4-0.2-1.1-0.6-2.2-0.6c-1.3,0-1.8,0.8-1.8,1.5c0,0.9,0.6,1.3,2.2,2c1.8,0.7,2.7,1.6,2.7,3.2
		C13.7,57.3,12.8,58.5,11,58.8z"/></svg>