<svg id="Layer_1" data-name="Layer 1" xmlns="http://www.w3.org/2000/svg" viewBox="0 0 500 155.47"><defs><style>.cls-1{fill:#231f20;}</style></defs><title>Artboard 1</title><path class="cls-1" d="M123,140.51H84.69V51.69h36.65c18.58,0,28.89,9.67,28.89,22.91,0,10.81-6.49,17.56-15.14,20.36,10,1.78,17.18,11.07,17.18,21.5C152.27,130.59,141.45,140.51,123,140.51Zm-4.2-74.44H102.51V88.34H118.8c8.4,0,13.23-3.82,13.23-11.07S127.2,66.07,118.8,66.07Zm1.27,36H102.51V126h17.94c8.66,0,13.75-4.2,13.75-11.71S128.72,102.08,120.07,102.08Z"/><path class="cls-1" d="M221,123.59H185.6l-5.86,16.92H161L193,51.56h20.74l31.94,88.95H226.83ZM203.29,72.18l-12.86,37.16h25.71Z"/><path class="cls-1" d="M291,51.69C312.33,51.69,323,64,323,78.92c0,10.82-6,21.76-20.23,25.58l21.25,36H303.42L283.83,105.9h-8.4v34.61H257.61V51.69Zm-.63,14.76H275.43V92.54h14.89c9.92,0,14.38-5.22,14.38-13.24S300.24,66.45,290.32,66.45Z"/><path class="cls-1" d="M393.64,123.59H358.26l-5.85,16.92H333.7l31.94-88.95h20.74l31.94,88.95H399.49ZM376,72.18,363.1,109.34h25.7Z"/><rect class="cls-1" x="317.19" y="28.79" width="4.5" height="4.5" rx="2.25"/><path class="cls-1" d="M319.44,6.52c-5.13,0-8.44,6-6.14,11.05L316.83,26a2.77,2.77,0,0,0,5.22,0l3.53-8.42c2.3-5-1-11-6.14-11Zm0,5.23a2.27,2.27,0,0,1,2.15,2.38,2.16,2.16,0,1,1-4.3,0,2.27,2.27,0,0,1,2.15-2.38Z"/><path class="cls-1" d="M176.7,14.19h4.07V26.34c1.62-2.6,4.67-4,8.12-4,5.47,0,9.82,3.49,9.82,10.53V47.36h-4V33.46c0-5-2.73-7.57-6.86-7.57s-7,2.6-7,7.89V47.36H176.7Z"/><path class="cls-1" d="M218.48,47.76c-6.94,0-12.23-4.93-12.23-12.73s5.47-12.64,12.41-12.64S231.08,27.28,231.08,35,225.48,47.76,218.48,47.76Zm0-3.58c4.26,0,8.43-2.91,8.43-9.15s-4.08-9.1-8.29-9.1-8.2,2.92-8.2,9.1S214.23,44.18,218.48,44.18Z"/><path class="cls-1" d="M274.3,33.46c0-5-2.69-7.57-6.72-7.57s-6.95,2.64-6.95,7.93V47.36h-4V33.46c0-5-2.69-7.57-6.73-7.57s-7,2.64-7,7.93V47.36h-4.08V22.79h4.08v3.55a8.89,8.89,0,0,1,7.76-4c4,0,7.4,1.79,9,5.47a9.08,9.08,0,0,1,8.7-5.47c5.6,0,9.95,3.49,9.95,10.53V47.36h-4Z"/><path class="cls-1" d="M298,47.76c-7,0-12.15-4.93-12.15-12.73s5-12.64,12.15-12.64,11.79,5,11.79,11.75a19.84,19.84,0,0,1-.14,2.46H290.05c.31,5,3.81,7.71,8,7.71,3.68,0,6-1.88,6.9-4.52h4.4C308.07,44.27,304.13,47.76,298,47.76Zm-7.94-14.47h15.52c0-4.8-3.55-7.45-7.76-7.45C293.86,25.84,290.54,28.49,290.09,33.29Z"/></svg>