<svg xmlns="http://www.w3.org/2000/svg" width="29.237" height="26.998" viewBox="0 0 29.237 26.998">
  <g id="Icon_ionic-ios-hammer" data-name="Icon ionic-ios-hammer" transform="translate(-3.386 -4.5)">
    <path id="Path_56" data-name="Path 56" d="M19.519,17.36a1.732,1.732,0,0,0-.288-.387l-1.294-1.28a1.531,1.531,0,0,0-.464-.323,1.478,1.478,0,0,0-1.645.3c-.45.443-1.273,1.252-2.756,2.721-2.841,2.813-6.9,6.3-9.281,8.311a1.137,1.137,0,0,0-.077,1.666l2.756,2.791A1.139,1.139,0,0,0,8.142,31.1c2.067-2.433,5.59-6.49,8.4-9.267,1.441-1.42,2.25-2.236,2.707-2.686A1.541,1.541,0,0,0,19.519,17.36Z" fill="#fff"/>
    <path id="Path_57" data-name="Path 57" d="M32.513,15.335l-2.426-2.4a.387.387,0,0,0-.281-.113.4.4,0,0,0-.281.113h0a.805.805,0,0,1-.675.232,1.5,1.5,0,0,1-.872-.345c-.492-.485.077-1.441-.359-2.053a17.149,17.149,0,0,0-1.631-1.891,17.929,17.929,0,0,0-5.766-3.72A8.75,8.75,0,0,0,16.9,4.5a6.352,6.352,0,0,0-3.853,1.076c-.387.359-.788.991-.218.991a1.631,1.631,0,0,0,.169-.014,11.825,11.825,0,0,1,1.645-.105,5.522,5.522,0,0,1,3.136.71A5.188,5.188,0,0,1,19.948,10.9a4.017,4.017,0,0,1-1.315,3.2.557.557,0,0,0,.028.766l1.35,1.35a.562.562,0,0,0,.788.007,5.538,5.538,0,0,1,2.2-1.6,3.432,3.432,0,0,1,.9-.113,3.979,3.979,0,0,1,1.659.323.958.958,0,0,1,.218.169,1.2,1.2,0,0,1-.035,1.68l-.141.134a.39.39,0,0,0,0,.555l2.426,2.4a.387.387,0,0,0,.281.112.4.4,0,0,0,.281-.112L32.513,15.9A.412.412,0,0,0,32.513,15.335Z" fill="#fff"/>
  </g>
</svg>
